<svg width="11" height="16" viewBox="0 0 11 16" fill="none" xmlns="http://www.w3.org/2000/svg">
<path id="Vector" d="M6.53833 6.94H6.53777H3.73777C3.44132 6.94 3.15701 6.82224 2.94739 6.61261C2.73776 6.40299 2.62 6.11868 2.62 5.82223C2.62 5.52578 2.73776 5.24147 2.94739 5.03185C3.15701 4.82222 3.44132 4.70446 3.73777 4.70446H8.21777H8.71777V4.20446V3.08446V2.58446H8.21777H6.33777V1V0.5H5.83777H4.71777H4.21777V1V2.58446H3.73777C2.87906 2.58446 2.05552 2.92558 1.44832 3.53278C0.841121 4.13998 0.5 4.96352 0.5 5.82223C0.5 6.68094 0.841121 7.50448 1.44832 8.11168C2.05552 8.71888 2.87906 9.06 3.73777 9.06H6.53721C6.8337 9.06033 7.11796 9.17826 7.32762 9.38792C7.53719 9.59749 7.65511 9.8816 7.65554 10.178C7.65554 10.1781 7.65554 10.1782 7.65554 10.1783V10.3017C7.65554 10.3018 7.65554 10.3019 7.65554 10.302C7.65511 10.5984 7.53719 10.8825 7.32762 11.0921C7.11796 11.3017 6.8337 11.4197 6.53721 11.42H1.79852H1.29852V11.92V13.04V13.54H1.79852H4.21777V15V15.5H4.71777H5.83777H6.33777V15V13.54H6.53777H6.53833C7.3966 13.539 8.21943 13.1977 8.82632 12.5908C9.4332 11.9839 9.77457 11.1611 9.77554 10.3028V10.3022V10.1778V10.1772C9.77457 9.31894 9.4332 8.49611 8.82632 7.88922C8.21943 7.28234 7.3966 6.94096 6.53833 6.94Z" fill="#00CE3A" stroke="#00CE3A"/>
</svg>
