<svg width="14" height="16" viewBox="0 0 14 16" fill="none" xmlns="http://www.w3.org/2000/svg">
<g id="&#240;&#159;&#166;&#134; icon &#34;fire&#34;">
<path id="Vector" d="M8.68532 7.87697C8.86705 7.57855 9.05488 7.26998 9.24041 6.95183C9.86138 5.88731 9.97534 4.8147 9.57921 3.76373C8.77992 1.64323 6.10802 0.351226 5.48946 0.145083L5.05451 0L4.37565 1.35798L4.70325 1.62562C4.70692 1.62856 5.0708 1.94651 5.09505 2.42851C5.11577 2.83997 4.8902 3.28461 4.42478 3.75015C4.10158 4.07333 3.74685 4.38583 3.37127 4.71663C1.79105 6.10826 0 7.68599 0 10.6707C0 10.7117 0.000385473 10.7525 0.00115643 10.793C0.0126084 11.4516 0.15407 12.1015 0.417416 12.7053C0.680761 13.3091 1.0608 13.855 1.53571 14.3115C2.48935 15.2391 3.768 15.7568 5.09832 15.7539H8.1414L7.76576 14.9916C6.23949 11.894 7.31884 10.1213 8.68532 7.87697Z" fill="#FF1111"/>
<path id="Vector_2" d="M13.8761 10.6368C13.8673 10.6018 13.8581 10.5667 13.8485 10.5315C13.467 9.13283 11.3553 7.33441 11.1158 7.13395L10.6348 6.73145L10.3194 7.27358C9.60069 8.50931 8.98388 9.63641 8.71499 10.9151C8.40841 12.3733 8.61478 13.8554 9.34608 15.446L9.48753 15.7538H9.84695C10.48 15.7557 11.105 15.6121 11.6739 15.3343C12.2427 15.0565 12.7402 14.6518 13.1279 14.1514C13.5133 13.6619 13.7812 13.0904 13.9109 12.4811C14.0406 11.8718 14.0287 11.2408 13.8761 10.6368Z" fill="#FF1111"/>
</g>
</svg>
