<svg width="38" height="41" viewBox="0 0 38 41" fill="none" xmlns="http://www.w3.org/2000/svg">
<g id="&#240;&#159;&#166;&#134; icon &#34;user octagon&#34;">
<g id="Group">
<path id="Vector" d="M36 14.3127V27.1118C36 29.2075 34.8773 31.1536 33.0622 32.2202L21.9471 38.6385C20.1321 39.6864 17.8866 39.6864 16.0528 38.6385L4.93781 32.2202C3.12273 31.1723 2 29.2262 2 27.1118V14.3127C2 12.2169 3.12273 10.2708 4.93781 9.20418L16.0528 2.78591C17.8679 1.73803 20.1133 1.73803 21.9471 2.78591L33.0622 9.20418C34.8773 10.2708 36 12.1982 36 14.3127Z" stroke="#4361EE" stroke-width="3" stroke-linecap="round" stroke-linejoin="round"/>
<path id="Vector_2" d="M19.0093 18.8412C21.4174 18.8412 23.3692 16.8891 23.3692 14.4812C23.3692 12.0733 21.4174 10.1213 19.0093 10.1213C16.6014 10.1213 14.6494 12.0733 14.6494 14.4812C14.6494 16.8891 16.6014 18.8412 19.0093 18.8412Z" stroke="#4361EE" stroke-width="3" stroke-linecap="round" stroke-linejoin="round"/>
<path id="Vector_3" d="M26.4942 29.4325C26.4942 26.0643 23.1447 23.3323 19.0093 23.3323C14.8739 23.3323 11.5244 26.0643 11.5244 29.4325" stroke="#4361EE" stroke-width="3" stroke-linecap="round" stroke-linejoin="round"/>
</g>
</g>
</svg>
