<svg width="34" height="34" viewBox="0 0 34 34" fill="none" xmlns="http://www.w3.org/2000/svg">
<g id="&#240;&#159;&#166;&#134; icon &#34;smart home&#34;">
<g id="Group">
<path id="Vector" d="M25.9512 33.0415H16.2584C15.6175 33.0415 15.0859 32.51 15.0859 31.869C15.0859 31.2281 15.6175 30.6965 16.2584 30.6965H25.9512C27.624 30.6965 29.2655 29.305 29.5469 27.6478L31.6262 15.2037C31.8138 14.0781 31.1886 12.4677 30.3131 11.7642L19.4789 3.10335C18.2283 2.1028 16.149 2.10279 14.914 3.0877L4.07998 11.7642C3.18887 12.4833 2.57916 14.0781 2.76677 15.2037L3.2045 17.8456C3.31394 18.4866 2.87622 19.0963 2.23524 19.1901C1.59427 19.3152 1.00021 18.8618 0.890777 18.2208L0.453039 15.5946C0.124735 13.656 1.06276 11.1702 2.61048 9.93519L13.4445 1.25852C15.5393 -0.429902 18.838 -0.414253 20.9485 1.27417L31.7825 9.93519C33.3146 11.1702 34.2526 13.656 33.9399 15.5946L31.8607 28.0387C31.3917 30.8058 28.7496 33.0415 25.9512 33.0415Z" fill="#4361EE"/>
<path id="Vector_2" d="M6.25378 33.3388C5.6128 33.3388 5.0969 32.8229 5.08127 32.1975C5.03437 30.087 3.643 28.6956 1.53248 28.6487C0.891503 28.6331 0.375582 28.1016 0.391215 27.445C0.406849 26.804 0.922755 26.3037 1.56373 26.3037H1.59498C4.95618 26.3819 7.36376 28.7738 7.42629 32.135C7.44192 32.776 6.926 33.3232 6.28503 33.3388C6.2694 33.3388 6.26941 33.3388 6.25378 33.3388Z" fill="#4361EE"/>
<path id="Vector_3" d="M10.9438 33.3387C10.3028 33.3387 9.77131 32.8227 9.77131 32.1818C9.75566 31.15 9.58369 30.165 9.27102 29.2427C8.47371 26.9602 6.76966 25.2716 4.48717 24.4587C3.56479 24.1304 2.57988 23.9586 1.54807 23.9586C0.907095 23.9586 0.375572 23.427 0.391205 22.7704C0.391205 22.1294 0.922745 21.6135 1.56372 21.6135H1.57935C2.87693 21.6292 4.11196 21.848 5.26884 22.2545C8.22357 23.3019 10.4279 25.5063 11.4753 28.461C11.8818 29.6179 12.1007 30.8686 12.1163 32.1505C12.1163 32.8071 11.6004 33.3387 10.9438 33.3387Z" fill="#4361EE"/>
<path id="Vector_4" d="M1.56335 33.7297C0.687874 33.7297 0 33.0262 0 32.1664C0 31.3065 0.703508 30.603 1.56335 30.603C2.42319 30.603 3.1267 31.3065 3.1267 32.1664C3.1267 33.0262 2.43883 33.7297 1.56335 33.7297Z" fill="#4361EE"/>
</g>
</g>
</svg>
